<svg xmlns="http://www.w3.org/2000/svg" viewBox="0 0 512 512" role="img" aria-label="NSX Cari Takip Pro">
  <defs><linearGradient id="g" x1="82" y1="95" x2="427" y2="410" gradientUnits="userSpaceOnUse"><stop stop-color="#166DFF"/><stop offset="1" stop-color="#12C7DE"/></linearGradient></defs>
  <rect width="512" height="512" rx="118" fill="#F8FBFF"/>
  <path d="M128 342c-48 0-87-38-87-85 0-43 33-79 76-84 14-61 69-106 135-106 62 0 115 40 134 96 49 2 88 42 88 91 0 49-40 88-89 88H128Z" fill="url(#g)"/>
  <path d="M136 318c-34 0-62-27-62-61 0-31 24-57 55-60 10-45 50-78 98-78 46 0 85 30 98 72 8-3 17-4 26-4 37 0 68 30 68 67s-31 64-68 64H136Z" fill="#fff" fill-opacity=".96"/>
  <text x="256" y="279" text-anchor="middle" font-family="Segoe UI,Arial,sans-serif" font-size="86" font-weight="900" fill="#1267EF">NSX</text>
</svg>
